<svg width="972" height="287" viewBox="0 0 972 287" fill="#282828" xmlns="http://www.w3.org/2000/svg"><!-- or fill="#F7F7F5" -->
<path d="M86.8784 191.078C87.1964 194.436 87.978 198.209 88.2216 201.533C89.1978 214.836 81.0296 224.345 77.4919 236.461C72.8205 252.452 71.0997 267.975 74.7052 284.01C74.2365 286.236 71.8932 286.929 70.1438 285.557C68.6871 284.414 67.8428 278.137 67.3876 276.071C63.6722 259.174 68.0505 242.013 73.9163 225.792C79.2627 211.008 82.8906 208.503 80.3561 191.677C80.0584 189.7 78.9349 188.71 80.6082 186.667C82.7265 184.08 84.6688 185.579 87.0459 185.586C91.7544 185.598 98.0939 182.314 101.393 179.021C103.065 177.353 105.638 172.636 108.286 173.188C113.135 174.199 107.55 180.512 106 182.277C101.104 187.853 94.5173 191.591 86.8767 191.078H86.8784Z"/>
<path d="M99.3751 80.9777C106.4 81.2383 109.01 82.5186 114.294 90.3311C117.945 95.7283 121.691 106.326 120.146 112.794C119.84 114.076 118.879 115.972 117.345 115.408C115.612 114.634 113.907 105.892 113.176 103.641C111.592 98.7696 107.504 88.0476 101.789 87.0788C100.569 86.8721 99.0683 86.6816 97.8044 86.7578C95.0822 86.9221 91.7772 88.0401 91.7772 84.4298C91.7772 80.4782 94.1997 79.0685 95.0052 75.0409C96.6961 66.5865 90.9928 57.856 88.8858 46.686C85.5603 29.0557 84.8358 17.0631 92.5858 1.37966C94.3961 -0.915422 97.406 -0.215889 97.1268 2.50772C97.0202 3.55448 95.7301 6.66326 95.0803 9.39151C92.1523 21.6845 92.6946 31.4935 94.0819 39.7391C96.2906 52.8668 102.257 61.0654 101.468 72.8106C101.282 75.5841 100.113 79.0058 99.3751 80.9777Z"/>
<path d="M169.168 168.985C170.479 168.638 172.031 166.439 174.325 166.082C177.358 165.611 181.442 166.018 184.647 166.018L184.644 166.048C183.921 172.514 183.196 178.997 182.223 185.432C181.537 189.961 180.862 195.529 179.752 199.892C178.844 203.464 178.044 201.886 176.512 203.42C175.117 204.819 176.013 205.783 177.703 205.981C179.202 206.157 190.648 206.139 191.406 205.798C192.744 205.197 192.509 203.842 191.399 203.112C188.779 201.389 187.762 203.176 188.038 198.359C188.244 194.78 189.203 189.894 189.77 186.211C190.811 179.458 192.392 172.812 193.216 166.018C196.806 166.018 204.292 165.213 207.633 167.227C208.789 167.923 210.719 170.517 211.643 167.126C212.242 164.931 213.252 159.775 209.904 159.633C198.087 160.765 181.365 160.802 169.269 159.944C167.973 160.295 167.649 160.811 167.292 162.016C166.637 164.229 165.202 170.039 169.168 168.985Z"/>
<path d="M169.819 123.277C172.455 126.003 173.025 131 170.385 134.546C167.414 138.535 160.387 134.914 164.182 130.16C164.835 129.342 165.906 129.24 165.626 128.242C164.808 125.323 161.869 125.479 160.171 126.48C155.261 129.377 154.075 138.571 153.83 142.181C153.526 146.676 151.724 187.989 142.023 199.363C137.561 204.592 130.068 206.436 123.799 203.398C117.727 200.455 115.56 191.599 119.867 186.333C124.726 180.393 132.506 185.706 128.306 191.731C127.41 193.018 125.958 193.079 126.153 194.581C126.725 199.016 131.614 199.785 134.58 196.653C141.552 189.292 144.695 162.724 145.685 153.124C146.676 143.525 145.426 122.74 158.677 120.206C162.034 119.564 167.02 120.381 169.819 123.277Z"/>
<path d="M107.833 122.488L127.218 122.587C128.202 122.866 128.184 125.121 127.641 125.692C126.693 126.689 124.198 126.663 122.978 127.674C122.094 128.409 121.471 129.975 121.21 131.108C120.229 135.385 119.775 140.163 119.383 144.982C118.97 150.071 118.323 155.171 117.798 159.841C117.911 163.887 122.036 162.314 122.676 164.565C123.099 166.052 122.243 167.247 120.806 167.588L102.689 167.379C101.381 166.978 100.877 165.621 101.414 164.319C102.353 162.042 104.285 163.136 105.995 162.744C108.124 162.258 108.278 159.831 108.56 158.031C109.68 150.901 111.922 136.68 111.326 129.952C110.937 125.553 106.821 127.318 106.286 125.692C105.887 124.476 106.508 122.746 107.831 122.49L107.833 122.488Z"/>
<path d="M89.2816 102.074C89.8888 102.503 89.891 102.74 89.9586 103.859C90.0837 105.93 90.0096 108.862 90.0239 109.655C90.0459 110.888 90.4197 113.716 89.0118 114.142C85.3404 115.254 85.6483 111.283 84.3084 109.163C82.6503 106.537 72.7494 104.859 70.9543 107C69.4789 108.761 69.5551 118.568 68.9798 121.288C71.4348 121.824 75.964 122.205 77.8843 120.279C79.1363 119.026 79.0347 116.102 81.285 115.879C83.7771 115.63 83.2391 117.471 83.168 119.473C83.0733 122.134 82.784 125.924 82.4371 128.56C82.163 130.633 81.6961 132.556 79.0094 132.1C77.1178 131.78 78.0061 129.737 77.4258 128.238C76.4174 125.631 70.9238 125.528 68.5805 125.868C68.276 126.089 68.0493 127.776 67.9698 128.304C67.5705 130.975 66.9529 135.14 66.8886 137.737C66.7719 142.474 69.8004 143.225 73.844 142.986C76.8302 142.81 80.7046 141.646 82.8297 139.449C84.2221 138.01 84.6857 135.283 87.0526 135.179C88.4349 135.12 89.538 135.794 89.406 137.276C89.2825 138.665 87.858 143.474 87.3115 144.947C85.9021 148.746 83.6976 147.842 79.923 147.747C71.917 147.544 63.9045 147.251 55.8477 147.378C54.3571 147.402 51.1364 148.397 51.155 145.644C51.177 142.36 56.0352 144.542 57.0215 140.372C57.7321 131.687 59.3817 123.042 60.1414 114.373C60.3224 112.31 61.2488 107.646 59.3133 106.432C58.1696 105.714 55.5281 106.428 55.6905 103.97C55.9223 100.486 59.8175 101.618 63.0074 101.691C68.4841 101.817 73.8237 101.735 79.2428 101.668C81.8748 101.635 84.5148 101.66 87.1482 101.693C87.9444 101.704 88.6744 101.645 89.2816 102.074Z"/>
<path fill-rule="evenodd" clip-rule="evenodd" d="M23.6031 121.457L27.7541 83.4805C27.7541 83.4805 33.5597 83.729 34.9621 88.7283C35.2019 89.5833 34.7899 89.8095 34.1968 90.1351C33.8008 90.3525 33.324 90.6142 32.9067 91.1371C28.6402 96.4825 36.5411 100.554 39.881 96.0686C42.8501 92.0815 41.7876 87.0852 38.8238 84.0196C34.6492 79.7016 28.3365 78.9946 28.3365 78.9946C28.3365 78.9946 30.1133 65.2679 29.7868 63.5266C29.4602 61.7854 27.5345 61.8586 26.1573 62.0839C23.5872 62.5043 23.5054 63.8496 22.9545 72.9047C22.8542 74.5532 22.7383 76.4572 22.5891 78.6576C-2.29356 80.4055 -10.4197 122.252 17.8518 126.067C17.8042 126.531 17.709 127.218 17.5957 128.035C17.1297 131.398 16.3586 136.962 17.3442 138.252C18.5895 139.583 21.3153 138.772 21.7014 136.818C22.087 134.868 22.2369 133.176 22.4731 130.509C22.5893 129.198 22.7389 127.995 22.935 126.067C26.0437 126.067 36.8907 123.06 37.4135 119.727C37.5877 118.616 36.5049 116.805 35.2986 116.91C34.929 116.941 33.882 117.65 32.9081 118.31C32.2547 118.752 31.6343 119.173 31.2736 119.351C26.2042 121.855 23.6031 121.457 23.6031 121.457ZM15.1499 87.2992C16.9602 85.2108 19.1716 83.6813 22.0156 83.3968L20.1935 102.262L18.4017 121.02C18.4017 121.02 18.1799 121.158 15.583 119.693C5.44685 113.973 8.66144 94.7807 15.1499 87.2992Z"/>
<path d="M284.207 129.159V134.57C280.6 136.538 276.435 137.521 271.713 137.521C267.876 137.521 264.621 136.751 261.949 135.209C259.276 133.668 257.161 131.545 255.603 128.839C254.045 126.134 253.267 123.207 253.267 120.059C253.267 115.058 255.046 110.852 258.604 107.441C262.178 104.031 266.581 102.326 271.811 102.326C275.419 102.326 279.428 103.268 283.838 105.154V110.442C279.821 108.147 275.894 106.999 272.057 106.999C268.122 106.999 264.851 108.245 262.244 110.737C259.653 113.213 258.358 116.32 258.358 120.059C258.358 123.83 259.637 126.929 262.195 129.356C264.753 131.783 268.024 132.996 272.008 132.996C276.173 132.996 280.239 131.717 284.207 129.159Z"/>
<path d="M306.032 102.572H309.5L324.872 137.128H319.83L315.255 126.945H300.646L296.317 137.128H291.275L306.032 102.572ZM313.239 122.568L307.705 110.122L302.564 122.568H313.239Z"/>
<path d="M359.536 102.768H364.11V137.128H359.167V110.393L348.591 123.674H347.681L337.006 110.393V137.128H332.087V102.768H336.711L348.148 116.886L359.536 102.768Z"/>
<path d="M375.064 102.768H394.543V107.146H379.983V117.624H394.051V122.026H379.983V132.701H395.011V137.079H375.064V102.768Z"/>
<path d="M403.923 137.128V102.768H412.531C416.007 102.768 418.762 103.629 420.795 105.351C422.845 107.073 423.87 109.401 423.87 112.336C423.87 114.336 423.37 116.066 422.369 117.526C421.369 118.985 419.934 120.075 418.065 120.797C419.164 121.518 420.238 122.502 421.287 123.748C422.337 124.994 423.812 127.167 425.714 130.266C426.911 132.217 427.871 133.685 428.592 134.668L430.412 137.128H424.558L423.058 134.865C423.009 134.783 422.91 134.644 422.763 134.447L421.804 133.094L420.279 130.586L418.631 127.905C417.614 126.495 416.68 125.371 415.827 124.535C414.991 123.699 414.228 123.1 413.54 122.74C412.867 122.363 411.728 122.174 410.121 122.174H408.842V137.128H403.923ZM410.318 106.95H408.842V117.796H410.711C413.204 117.796 414.909 117.583 415.827 117.157C416.762 116.73 417.483 116.091 417.991 115.238C418.516 114.369 418.779 113.385 418.779 112.287C418.779 111.205 418.492 110.229 417.918 109.36C417.344 108.474 416.532 107.851 415.483 107.491C414.45 107.13 412.728 106.95 410.318 106.95Z"/>
<path d="M448.72 102.572H452.188L467.56 137.128H462.518L457.943 126.945H443.333L439.005 137.128H433.963L448.72 102.572ZM455.926 122.568L450.392 110.122L445.252 122.568H455.926Z"/>
<path d="M466.88 102.719H495.582V107.097H483.605V137.128H478.661V107.097H466.88V102.719Z"/>
<path d="M509.684 102.572H513.152L528.524 137.128H523.482L518.908 126.945H504.298L499.969 137.128H494.927L509.684 102.572ZM516.891 122.568L511.357 110.122L506.216 122.568H516.891Z"/>
<path d="M553.432 137.079V102.768H565.017C569.69 102.768 573.387 103.473 576.109 104.884C578.831 106.277 580.995 108.335 582.602 111.057C584.209 113.779 585.013 116.747 585.013 119.96C585.013 122.256 584.57 124.453 583.684 126.552C582.799 128.651 581.536 130.495 579.897 132.086C578.224 133.726 576.281 134.964 574.068 135.8C572.772 136.308 571.584 136.652 570.501 136.833C569.419 136.997 567.353 137.079 564.303 137.079H553.432ZM564.5 107.146H558.351V132.701H564.648C567.107 132.701 569.017 132.537 570.378 132.209C571.739 131.865 572.871 131.438 573.773 130.93C574.691 130.405 575.527 129.766 576.281 129.011C578.708 126.552 579.921 123.445 579.921 119.69C579.921 116.001 578.675 112.992 576.183 110.663C575.265 109.794 574.207 109.081 573.01 108.524C571.829 107.966 570.706 107.597 569.641 107.417C568.575 107.237 566.861 107.146 564.5 107.146Z"/>
<path d="M594.687 102.768H614.167V107.146H599.606V117.624H613.675V122.026H599.606V132.701H614.634V137.079H594.687V102.768Z"/>
<path d="M640.944 102.768H660.423V107.146H645.863V117.624H659.931V122.026H645.863V132.701H660.891V137.079H640.944V102.768Z"/>
<path d="M678.165 122.715L674.427 120.452C672.082 119.026 670.41 117.624 669.409 116.247C668.426 114.853 667.934 113.254 667.934 111.451C667.934 108.745 668.868 106.548 670.738 104.859C672.623 103.17 675.066 102.326 678.067 102.326C680.936 102.326 683.568 103.129 685.962 104.736V110.319C683.486 107.942 680.822 106.753 677.969 106.753C676.362 106.753 675.042 107.13 674.009 107.884C672.976 108.622 672.459 109.573 672.459 110.737C672.459 111.77 672.836 112.738 673.591 113.639C674.345 114.541 675.567 115.484 677.255 116.468L681.018 118.681C685.216 121.174 687.315 124.355 687.315 128.224C687.315 130.979 686.388 133.217 684.536 134.939C682.699 136.661 680.305 137.521 677.354 137.521C673.96 137.521 670.869 136.48 668.081 134.398V128.151C670.738 131.512 673.812 133.193 677.305 133.193C678.846 133.193 680.125 132.766 681.141 131.914C682.174 131.045 682.691 129.962 682.691 128.667C682.691 126.568 681.182 124.584 678.165 122.715Z"/>
<path d="M693.325 102.719H722.027V107.097H710.05V137.128H705.106V107.097H693.325V102.719Z"/>
<path d="M754.133 102.768H759.077V122.272C759.077 124.912 758.88 126.904 758.486 128.249C758.109 129.594 757.634 130.717 757.06 131.619C756.502 132.504 755.814 133.299 754.994 134.004C752.272 136.349 748.714 137.521 744.32 137.521C739.843 137.521 736.252 136.357 733.547 134.029C732.727 133.307 732.03 132.504 731.456 131.619C730.899 130.717 730.432 129.618 730.054 128.323C729.694 127.027 729.513 124.994 729.513 122.223V102.768H734.457V122.272C734.457 125.503 734.826 127.749 735.564 129.011C736.302 130.274 737.425 131.291 738.933 132.061C740.442 132.816 742.221 133.193 744.27 133.193C747.189 133.193 749.567 132.43 751.403 130.905C752.37 130.085 753.067 129.118 753.494 128.003C753.92 126.888 754.133 124.978 754.133 122.272V102.768Z"/>
<path d="M769.465 137.079V102.768H781.049C785.722 102.768 789.42 103.473 792.141 104.884C794.863 106.277 797.028 108.335 798.635 111.057C800.242 113.779 801.045 116.747 801.045 119.96C801.045 122.256 800.602 124.453 799.717 126.552C798.831 128.651 797.569 130.495 795.929 132.086C794.257 133.726 792.314 134.964 790.1 135.8C788.805 136.308 787.616 136.652 786.534 136.833C785.452 136.997 783.386 137.079 780.336 137.079H769.465ZM780.533 107.146H774.384V132.701H780.68C783.14 132.701 785.05 132.537 786.411 132.209C787.772 131.865 788.903 131.438 789.805 130.93C790.723 130.405 791.559 129.766 792.314 129.011C794.74 126.552 795.954 123.445 795.954 119.69C795.954 116.001 794.708 112.992 792.215 110.663C791.297 109.794 790.24 109.081 789.042 108.524C787.862 107.966 786.739 107.597 785.673 107.417C784.607 107.237 782.894 107.146 780.533 107.146Z"/>
<path d="M818.885 102.572H822.353L837.725 137.128H832.683L828.109 126.945H813.499L809.17 137.128H804.128L818.885 102.572ZM826.092 122.568L820.558 110.122L815.417 122.568H826.092Z"/>
<path d="M872.34 102.768H877.013V137.128H872.782L849.81 110.688V137.128H845.186V102.768H849.171L872.34 129.43V102.768Z"/>
<path d="M884.99 102.719H913.693V107.097H901.715V137.128H896.771V107.097H884.99V102.719Z"/>
<path d="M921.892 102.768H941.371V107.146H926.811V117.624H940.879V122.026H926.811V132.701H941.839V137.079H921.892V102.768Z"/>
<path d="M959.113 122.715L955.375 120.452C953.03 119.026 951.358 117.624 950.357 116.247C949.374 114.853 948.882 113.254 948.882 111.451C948.882 108.745 949.816 106.548 951.686 104.859C953.571 103.17 956.014 102.326 959.015 102.326C961.884 102.326 964.516 103.129 966.91 104.736V110.319C964.434 107.942 961.77 106.753 958.917 106.753C957.31 106.753 955.99 107.13 954.957 107.884C953.924 108.622 953.407 109.573 953.407 110.737C953.407 111.77 953.784 112.738 954.539 113.639C955.293 114.541 956.514 115.484 958.203 116.468L961.966 118.681C966.164 121.174 968.263 124.355 968.263 128.224C968.263 130.979 967.336 133.217 965.484 134.939C963.647 136.661 961.253 137.521 958.302 137.521C954.908 137.521 951.817 136.48 949.029 134.398V128.151C951.686 131.512 954.76 133.193 958.253 133.193C959.794 133.193 961.073 132.766 962.089 131.914C963.122 131.045 963.639 129.962 963.639 128.667C963.639 126.568 962.13 124.584 959.113 122.715Z"/>
<path d="M254.495 183.585V156.401H263.673C267.376 156.401 270.305 156.96 272.462 158.077C274.619 159.181 276.333 160.811 277.607 162.968C278.88 165.125 279.516 167.476 279.516 170.022C279.516 171.841 279.166 173.582 278.464 175.245C277.762 176.908 276.762 178.369 275.463 179.629C274.138 180.928 272.598 181.909 270.845 182.572C269.818 182.975 268.876 183.247 268.019 183.39C267.162 183.52 265.525 183.585 263.108 183.585H254.495ZM263.264 159.87H258.392V180.117H263.381C265.33 180.117 266.843 179.987 267.922 179.727C269 179.454 269.896 179.116 270.611 178.713C271.338 178.298 272.001 177.791 272.598 177.193C274.521 175.245 275.483 172.783 275.483 169.808C275.483 166.885 274.495 164.501 272.521 162.656C271.793 161.968 270.955 161.403 270.007 160.961C269.071 160.519 268.181 160.227 267.337 160.084C266.493 159.941 265.135 159.87 263.264 159.87Z"/>
<path d="M300.55 156.011C304.759 156.011 308.26 157.343 311.053 160.006C313.859 162.669 315.262 166.008 315.262 170.022C315.262 174.037 313.846 177.362 311.014 180C308.195 182.624 304.636 183.936 300.335 183.936C296.23 183.936 292.807 182.624 290.066 180C287.338 177.362 285.974 174.063 285.974 170.1C285.974 166.034 287.351 162.669 290.105 160.006C292.859 157.343 296.341 156.011 300.55 156.011ZM300.706 159.714C297.588 159.714 295.022 160.688 293.008 162.637C291.008 164.585 290.007 167.073 290.007 170.1C290.007 173.036 291.014 175.479 293.028 177.427C295.041 179.376 297.562 180.35 300.589 180.35C303.629 180.35 306.162 179.357 308.189 177.369C310.228 175.381 311.248 172.906 311.248 169.944C311.248 167.06 310.228 164.637 308.189 162.676C306.162 160.701 303.668 159.714 300.706 159.714Z"/>
<path d="M336.771 156.401H340.668V183.624H336.771V156.401Z"/>
<path d="M371.133 156.401H374.836V183.624H371.484L353.283 162.676V183.624H349.62V156.401H352.776L371.133 177.525V156.401Z"/>
<path d="M390.218 172.205L387.256 170.412C385.398 169.282 384.073 168.171 383.281 167.08C382.501 165.975 382.111 164.709 382.111 163.28C382.111 161.136 382.852 159.395 384.333 158.057C385.827 156.719 387.763 156.05 390.14 156.05C392.413 156.05 394.499 156.687 396.395 157.96V162.383C394.434 160.5 392.323 159.558 390.062 159.558C388.789 159.558 387.743 159.857 386.925 160.454C386.106 161.039 385.697 161.792 385.697 162.715C385.697 163.533 385.996 164.3 386.593 165.014C387.191 165.729 388.159 166.476 389.497 167.255L392.478 169.009C395.804 170.984 397.467 173.504 397.467 176.57C397.467 178.752 396.733 180.526 395.265 181.89C393.81 183.254 391.913 183.936 389.575 183.936C386.886 183.936 384.437 183.111 382.228 181.461V176.511C384.333 179.175 386.769 180.506 389.536 180.506C390.757 180.506 391.77 180.168 392.576 179.493C393.394 178.804 393.803 177.947 393.803 176.921C393.803 175.258 392.608 173.686 390.218 172.205Z"/>
<path d="M402.229 156.362H424.97V159.831H415.48V183.624H411.563V159.831H402.229V156.362Z"/>
<path d="M431.505 156.401H435.403V183.624H431.505V156.401Z"/>
<path d="M441.918 156.362H464.66V159.831H455.17V183.624H451.253V159.831H441.918V156.362Z"/>
<path d="M490.097 156.401H494.014V171.854C494.014 173.946 493.858 175.524 493.546 176.589C493.248 177.655 492.871 178.545 492.416 179.259C491.974 179.961 491.429 180.591 490.779 181.149C488.623 183.007 485.804 183.936 482.322 183.936C478.775 183.936 475.93 183.014 473.787 181.169C473.137 180.597 472.585 179.961 472.13 179.259C471.689 178.545 471.318 177.674 471.019 176.648C470.734 175.622 470.591 174.011 470.591 171.815V156.401H474.508V171.854C474.508 174.413 474.8 176.193 475.385 177.193C475.969 178.194 476.859 178.999 478.054 179.61C479.249 180.207 480.659 180.506 482.283 180.506C484.595 180.506 486.479 179.902 487.934 178.694C488.701 178.044 489.253 177.278 489.591 176.395C489.928 175.511 490.097 173.998 490.097 171.854V156.401Z"/>
<path d="M499.887 156.362H522.628V159.831H513.138V183.624H509.221V159.831H499.887V156.362Z"/>
<path d="M539.881 156.011C544.09 156.011 547.591 157.343 550.384 160.006C553.191 162.669 554.594 166.008 554.594 170.022C554.594 174.037 553.177 177.362 550.345 180C547.526 182.624 543.967 183.936 539.667 183.936C535.561 183.936 532.138 182.624 529.397 180C526.669 177.362 525.305 174.063 525.305 170.1C525.305 166.034 526.682 162.669 529.436 160.006C532.19 157.343 535.672 156.011 539.881 156.011ZM540.037 159.714C536.919 159.714 534.353 160.688 532.339 162.637C530.339 164.585 529.339 167.073 529.339 170.1C529.339 173.036 530.345 175.479 532.359 177.427C534.373 179.376 536.893 180.35 539.92 180.35C542.96 180.35 545.493 179.357 547.52 177.369C549.559 175.381 550.579 172.906 550.579 169.944C550.579 167.06 549.559 164.637 547.52 162.676C545.493 160.701 542.999 159.714 540.037 159.714Z"/>
<path d="M582.805 172.205L579.843 170.412C577.985 169.282 576.66 168.171 575.868 167.08C575.088 165.975 574.699 164.709 574.699 163.28C574.699 161.136 575.439 159.395 576.92 158.057C578.414 156.719 580.35 156.05 582.727 156.05C585.001 156.05 587.086 156.687 588.983 157.96V162.383C587.021 160.5 584.91 159.558 582.649 159.558C581.376 159.558 580.33 159.857 579.512 160.454C578.693 161.039 578.284 161.792 578.284 162.715C578.284 163.533 578.583 164.3 579.181 165.014C579.778 165.729 580.746 166.476 582.084 167.255L585.066 169.009C588.391 170.984 590.054 173.504 590.054 176.57C590.054 178.752 589.32 180.526 587.852 181.89C586.397 183.254 584.501 183.936 582.162 183.936C579.473 183.936 577.024 183.111 574.816 181.461V176.511C576.92 179.175 579.356 180.506 582.123 180.506C583.344 180.506 584.358 180.168 585.163 179.493C585.982 178.804 586.391 177.947 586.391 176.921C586.391 175.258 585.196 173.686 582.805 172.205Z"/>
<path d="M616.077 156.401H619.993V171.854C619.993 173.946 619.838 175.524 619.526 176.589C619.227 177.655 618.85 178.545 618.395 179.259C617.954 179.961 617.408 180.591 616.759 181.149C614.602 183.007 611.783 183.936 608.301 183.936C604.755 183.936 601.909 183.014 599.766 181.169C599.116 180.597 598.564 179.961 598.11 179.259C597.668 178.545 597.298 177.674 596.999 176.648C596.713 175.622 596.57 174.011 596.57 171.815V156.401H600.487V171.854C600.487 174.413 600.779 176.193 601.364 177.193C601.948 178.194 602.838 178.999 604.034 179.61C605.229 180.207 606.638 180.506 608.262 180.506C610.575 180.506 612.458 179.902 613.913 178.694C614.68 178.044 615.232 177.278 615.57 176.395C615.908 175.511 616.077 173.998 616.077 171.854V156.401Z"/>
<path d="M627.971 183.624V156.362H636.603C639.202 156.362 641.274 157.063 642.82 158.467C644.366 159.87 645.139 161.753 645.139 164.118C645.139 165.703 644.742 167.106 643.95 168.327C643.157 169.548 642.073 170.438 640.696 170.997C639.318 171.542 637.344 171.815 634.772 171.815H631.887V183.624H627.971ZM635.921 159.831H631.887V168.346H636.155C637.74 168.346 638.961 167.976 639.819 167.236C640.676 166.482 641.105 165.41 641.105 164.02C641.105 161.227 639.377 159.831 635.921 159.831Z"/>
<path d="M651.323 156.401H666.757V159.87H655.22V168.171H666.367V171.659H655.22V180.117H667.127V183.585H651.323V156.401Z"/>
<path d="M674.188 183.624V156.401H681.009C683.763 156.401 685.945 157.083 687.556 158.447C689.18 159.811 689.992 161.656 689.992 163.981C689.992 165.566 689.596 166.937 688.803 168.093C688.011 169.249 686.874 170.113 685.393 170.685C686.264 171.256 687.115 172.036 687.946 173.023C688.777 174.011 689.947 175.732 691.454 178.187C692.402 179.733 693.162 180.896 693.734 181.675L695.176 183.624H690.538L689.349 181.831C689.31 181.766 689.232 181.656 689.115 181.5L688.355 180.428L687.147 178.441L685.841 176.317C685.036 175.199 684.295 174.309 683.62 173.647C682.957 172.984 682.353 172.51 681.808 172.224C681.275 171.926 680.372 171.776 679.099 171.776H678.086V183.624H674.188ZM679.255 159.714H678.086V168.307H679.567C681.541 168.307 682.892 168.139 683.62 167.801C684.36 167.463 684.932 166.956 685.335 166.281C685.75 165.592 685.958 164.813 685.958 163.942C685.958 163.085 685.731 162.312 685.276 161.623C684.822 160.922 684.178 160.428 683.347 160.142C682.529 159.857 681.165 159.714 679.255 159.714Z"/>
<path d="M701.029 156.401H704.926V183.624H701.029V156.401Z"/>
<path d="M727.129 156.011C731.338 156.011 734.839 157.343 737.632 160.006C740.438 162.669 741.841 166.008 741.841 170.022C741.841 174.037 740.425 177.362 737.593 180C734.774 182.624 731.215 183.936 726.914 183.936C722.809 183.936 719.386 182.624 716.645 180C713.917 177.362 712.553 174.063 712.553 170.1C712.553 166.034 713.93 162.669 716.684 160.006C719.438 157.343 722.92 156.011 727.129 156.011ZM727.285 159.714C724.167 159.714 721.601 160.688 719.587 162.637C717.587 164.585 716.586 167.073 716.586 170.1C716.586 173.036 717.593 175.479 719.607 177.427C721.62 179.376 724.141 180.35 727.168 180.35C730.208 180.35 732.741 179.357 734.768 177.369C736.807 175.381 737.827 172.906 737.827 169.944C737.827 167.06 736.807 164.637 734.768 162.676C732.741 160.701 730.247 159.714 727.285 159.714Z"/>
<path d="M749.526 183.624V156.401H756.347C759.101 156.401 761.283 157.083 762.894 158.447C764.518 159.811 765.33 161.656 765.33 163.981C765.33 165.566 764.934 166.937 764.142 168.093C763.349 169.249 762.212 170.113 760.731 170.685C761.602 171.256 762.453 172.036 763.284 173.023C764.116 174.011 765.285 175.732 766.792 178.187C767.74 179.733 768.5 180.896 769.072 181.675L770.514 183.624H765.876L764.687 181.831C764.648 181.766 764.57 181.656 764.453 181.5L763.693 180.428L762.485 178.441L761.18 176.317C760.374 175.199 759.634 174.309 758.958 173.647C758.296 172.984 757.691 172.51 757.146 172.224C756.613 171.926 755.71 171.776 754.437 171.776H753.424V183.624H749.526ZM754.593 159.714H753.424V168.307H754.905C756.879 168.307 758.231 168.139 758.958 167.801C759.699 167.463 760.27 166.956 760.673 166.281C761.089 165.592 761.297 164.813 761.297 163.942C761.297 163.085 761.069 162.312 760.614 161.623C760.16 160.922 759.517 160.428 758.685 160.142C757.867 159.857 756.503 159.714 754.593 159.714Z"/>
<path d="M782.922 156.362H805.663V159.831H796.173V183.624H792.256V159.831H782.922V156.362Z"/>
<path d="M812.159 156.401H827.593V159.87H816.057V168.171H827.203V171.659H816.057V180.117H827.963V183.585H812.159V156.401ZM823.5 148.548L819.096 154.394H816.914L819.545 148.548H823.5Z"/>
<path d="M858.37 177.31V181.598C855.512 183.156 852.212 183.936 848.47 183.936C845.43 183.936 842.852 183.325 840.734 182.104C838.616 180.883 836.941 179.201 835.706 177.057C834.472 174.914 833.855 172.595 833.855 170.1C833.855 166.138 835.265 162.806 838.084 160.103C840.916 157.401 844.404 156.05 848.548 156.05C851.406 156.05 854.583 156.797 858.077 158.291V162.481C854.895 160.662 851.783 159.753 848.743 159.753C845.625 159.753 843.034 160.74 840.968 162.715C838.915 164.676 837.889 167.138 837.889 170.1C837.889 173.088 838.902 175.544 840.929 177.466C842.956 179.389 845.547 180.35 848.704 180.35C852.004 180.35 855.226 179.337 858.37 177.31Z"/>
<path d="M887.588 156.401H891.29V183.624H887.938L869.738 162.676V183.624H866.074V156.401H869.231L887.588 177.525V156.401Z"/>
<path d="M899.969 156.401H903.866V183.624H899.969V156.401Z"/>
<path d="M936.163 177.31V181.598C933.305 183.156 930.005 183.936 926.264 183.936C923.224 183.936 920.645 183.325 918.527 182.104C916.41 180.883 914.734 179.201 913.5 177.057C912.266 174.914 911.649 172.595 911.649 170.1C911.649 166.138 913.058 162.806 915.877 160.103C918.709 157.401 922.198 156.05 926.342 156.05C929.2 156.05 932.376 156.797 935.871 158.291V162.481C932.688 160.662 929.577 159.753 926.537 159.753C923.419 159.753 920.827 160.74 918.761 162.715C916.709 164.676 915.682 167.138 915.682 170.1C915.682 173.088 916.696 175.544 918.722 177.466C920.749 179.389 923.341 180.35 926.498 180.35C929.797 180.35 933.019 179.337 936.163 177.31Z"/>
<path d="M957.119 156.011C961.328 156.011 964.829 157.343 967.622 160.006C970.428 162.669 971.831 166.008 971.831 170.022C971.831 174.037 970.415 177.362 967.583 180C964.764 182.624 961.204 183.936 956.904 183.936C952.799 183.936 949.376 182.624 946.635 180C943.907 177.362 942.542 174.063 942.542 170.1C942.542 166.034 943.919 162.669 946.674 160.006C949.428 157.343 952.91 156.011 957.119 156.011ZM957.275 159.714C954.157 159.714 951.591 160.688 949.577 162.637C947.577 164.585 946.576 167.073 946.576 170.1C946.576 173.036 947.583 175.479 949.597 177.427C951.61 179.376 954.131 180.35 957.158 180.35C960.198 180.35 962.731 179.357 964.758 177.369C966.797 175.381 967.817 172.906 967.817 169.944C967.817 167.06 966.797 164.637 964.758 162.676C962.731 160.701 960.237 159.714 957.275 159.714Z"/>
</svg>
