<svg width="279" height="279" viewBox="0 0 279 279" fill="none" xmlns="http://www.w3.org/2000/svg">
<path d="M278.07 139.035C278.07 215.822 215.822 278.07 139.035 278.07C62.248 278.07 0 215.822 0 139.035C0 62.248 62.248 0 139.035 0C215.822 0 278.07 62.248 278.07 139.035Z" fill="#282828"/> <!-- or fill="#F7F7F5" -->
<g fill="#F7F7F5"> <!-- or fill="#282828" -->
    <path d="M141.742 174.677C143.406 173.016 145.967 168.321 148.602 168.87C153.429 169.876 147.871 176.16 146.328 177.917C141.455 183.466 134.899 187.187 127.295 186.677C127.611 190.02 128.389 193.775 128.632 197.083C129.603 210.324 121.473 219.789 117.952 231.848C113.62 246.678 111.839 261.104 114.518 275.914C112.514 275.557 110.525 275.156 108.551 274.715C108.275 273.313 108.059 272.019 107.895 271.274C104.197 254.456 108.555 237.374 114.393 221.228C119.715 206.514 123.325 204.021 120.803 187.273C120.506 185.306 119.388 184.319 121.054 182.286C123.162 179.712 125.096 181.204 127.462 181.211C132.148 181.222 138.458 177.954 141.742 174.677Z"/>
    <path d="M249.747 155.379C253.08 155.52 252.075 160.651 251.478 162.836C250.559 166.211 248.637 163.63 247.487 162.937C244.161 160.933 236.71 161.733 233.137 161.733C232.317 168.495 230.744 175.111 229.708 181.833C229.144 185.498 228.189 190.361 227.983 193.924C227.709 198.718 228.721 196.94 231.329 198.655C232.434 199.382 232.668 200.73 231.336 201.329C230.58 201.668 219.189 201.686 217.697 201.51C216.015 201.313 215.122 200.354 216.512 198.962C218.036 197.434 218.832 199.005 219.736 195.45C220.841 191.107 221.513 185.565 222.195 181.057C223.164 174.653 223.885 168.199 224.604 161.763L224.608 161.733C221.418 161.733 217.353 161.328 214.334 161.797C212.051 162.152 210.506 164.342 209.201 164.687C205.254 165.736 206.682 159.953 207.334 157.75C207.689 156.551 208.013 156.037 209.303 155.688C221.342 156.542 237.985 156.505 249.747 155.379Z"/>
    <path d="M198.759 116.135C202.1 115.495 207.063 116.309 209.85 119.191C212.473 121.905 213.04 126.878 210.412 130.408C207.455 134.378 200.461 130.774 204.238 126.042C204.888 125.228 205.954 125.127 205.676 124.134C204.861 121.229 201.936 121.383 200.246 122.38C195.359 125.263 194.179 134.414 193.935 138.008C193.632 142.482 191.839 183.603 182.183 194.924C177.742 200.128 170.283 201.964 164.044 198.939C158 196.011 155.843 187.195 160.13 181.954C164.966 176.041 172.71 181.33 168.53 187.327C167.638 188.608 166.193 188.669 166.387 190.164C166.956 194.577 171.822 195.343 174.774 192.225C181.714 184.898 184.842 158.455 185.828 148.9C186.814 139.345 185.57 118.657 198.759 116.135Z"/>
    <path d="M167.447 118.505C168.426 118.783 168.407 121.027 167.867 121.595C166.923 122.588 164.44 122.561 163.227 123.568C162.346 124.299 161.726 125.858 161.467 126.986C160.49 131.242 160.038 135.999 159.648 140.796C159.237 145.86 158.593 150.937 158.07 155.586C158.183 159.612 162.289 158.047 162.926 160.288C163.346 161.768 162.494 162.957 161.064 163.297L143.032 163.088C141.731 162.689 141.229 161.339 141.763 160.043C142.697 157.776 144.621 158.865 146.323 158.475C148.441 157.991 148.595 155.575 148.876 153.784C149.991 146.687 152.222 132.532 151.629 125.836C151.242 121.457 147.145 123.213 146.612 121.595C146.215 120.385 146.833 118.663 148.15 118.408L148.151 118.406L167.447 118.505Z"/>
    <path d="M96.2519 99.9744C96.4826 96.5065 100.36 97.6341 103.535 97.7068C108.986 97.8315 114.301 97.7498 119.695 97.6824C122.315 97.65 124.942 97.6751 127.563 97.7087C128.356 97.7189 129.082 97.6603 129.686 98.0876C130.291 98.5151 130.294 98.7505 130.361 99.864C130.486 101.925 130.412 104.843 130.426 105.633C130.448 106.86 130.82 109.675 129.419 110.099C125.765 111.205 126.071 107.254 124.737 105.143C123.087 102.53 113.232 100.859 111.445 102.99C109.977 104.743 110.052 114.505 109.479 117.213C111.923 117.745 116.431 118.124 118.343 116.208C119.589 114.96 119.488 112.051 121.727 111.828C124.208 111.58 123.672 113.412 123.602 115.405C123.507 118.054 123.219 121.827 122.874 124.45C122.601 126.513 122.137 128.427 119.463 127.973C117.58 127.655 118.464 125.622 117.887 124.13C116.883 121.535 111.414 121.432 109.082 121.771C108.779 121.992 108.554 123.669 108.475 124.195C108.077 126.854 107.462 130.999 107.398 133.584C107.282 138.299 110.296 139.046 114.321 138.808C117.294 138.633 121.15 137.475 123.266 135.289C124.651 133.856 125.113 131.141 127.469 131.038C128.844 130.979 129.942 131.651 129.81 133.126C129.687 134.508 128.271 139.293 127.727 140.76C126.324 144.542 124.129 143.642 120.372 143.548C112.403 143.345 104.428 143.054 96.4091 143.18C94.9255 143.204 91.7198 144.194 91.7382 141.455C91.7601 138.186 96.5953 140.357 97.5771 136.207C98.2844 127.562 99.9264 118.957 100.683 110.329C100.863 108.275 101.785 103.633 99.8583 102.425C98.7199 101.71 96.0903 102.42 96.2519 99.9744Z"/>
    <path fill-rule="evenodd" clip-rule="evenodd" d="M66.8564 58.283C68.2272 58.0587 70.1447 57.9864 70.4697 59.7195C70.7937 61.4489 69.0346 75.0437 69.0253 75.115C69.0253 75.115 75.3086 75.8192 79.4638 80.1169C82.4137 83.1683 83.4718 88.1416 80.5165 92.1101C77.1921 96.574 69.3276 92.5214 73.5742 87.2009C73.9894 86.6806 74.4642 86.4202 74.8583 86.2039C75.4487 85.8798 75.8588 85.6545 75.6201 84.8035C74.2294 79.8466 68.4898 79.5818 68.4462 79.5798L64.3144 117.38C64.3277 117.382 66.9164 117.77 71.9492 115.284C72.3082 115.107 72.9258 114.688 73.5761 114.248C74.5451 113.592 75.5869 112.886 75.955 112.854C77.1557 112.75 78.2339 114.552 78.0605 115.658C77.5399 118.976 66.7436 121.968 63.6494 121.969C63.4541 123.888 63.305 125.086 63.1894 126.39C62.9543 129.044 62.8055 130.728 62.4218 132.67C62.0375 134.614 59.3244 135.421 58.0849 134.096C57.1039 132.813 57.8711 127.275 58.3349 123.927C58.4476 123.114 58.5424 122.431 58.5898 121.969C30.4501 118.172 38.5382 76.5203 63.3046 74.78C63.4532 72.5899 63.5691 70.6942 63.6689 69.0535C64.2172 60.041 64.2985 58.7014 66.8564 58.283ZM62.7343 79.4968C59.9035 79.7801 57.7022 81.3029 55.9003 83.3816C49.4423 90.8284 46.2431 109.931 56.332 115.624C58.9167 117.082 59.1376 116.945 59.1376 116.945L60.9208 98.2742L62.7343 79.4968Z"/>
    <path d="M137.253 0.010498C136.827 1.44156 135.956 3.7512 135.459 5.83667C132.545 18.0722 133.084 27.8356 134.465 36.0427C136.663 49.1091 142.601 57.2694 141.816 68.9597C141.631 71.7203 140.467 75.1269 139.733 77.0896C146.726 77.349 149.323 78.623 154.583 86.3992C158.217 91.7712 161.946 102.319 160.408 108.758C160.103 110.034 159.146 111.921 157.619 111.359C155.895 110.588 154.197 101.888 153.47 99.6472C151.893 94.7986 147.824 84.1262 142.136 83.1619C140.922 82.9562 139.428 82.7667 138.17 82.8425C135.46 83.0061 132.171 84.1185 132.171 80.5251C132.171 76.5921 134.582 75.1889 135.384 71.1804C137.067 62.7654 131.39 54.0747 129.293 42.9568C126.149 26.2875 125.341 14.6816 131.88 0.18042C133.662 0.0900686 135.453 0.0330997 137.253 0.010498Z"/>
</g>
</svg>
