<svg width="272" height="367" viewBox="0 0 272 367" fill="#282828" xmlns="http://www.w3.org/2000/svg"><!-- or fill="#F7F7F5" -->
<path d="M111.092 244.332C111.498 248.626 112.498 253.451 112.809 257.701C114.058 274.711 103.613 286.871 99.0891 302.363C93.1159 322.811 90.9155 342.661 95.5258 363.165C94.9265 366.011 91.9302 366.897 89.6932 365.143C87.8305 363.681 86.7508 355.655 86.1688 353.013C81.418 331.407 87.0165 309.463 94.5171 288.721C101.354 269.817 105.993 266.614 102.752 245.098C102.371 242.571 100.934 241.304 103.074 238.692C105.783 235.384 108.266 237.301 111.306 237.31C117.327 237.325 125.433 233.125 129.652 228.915C131.789 226.782 135.08 220.75 138.466 221.456C144.666 222.749 137.525 230.821 135.543 233.078C129.282 240.208 120.86 244.988 111.09 244.332H111.092Z"/>
<path d="M127.071 103.546C136.054 103.88 139.391 105.517 146.148 115.507C150.817 122.408 155.607 135.959 153.632 144.23C153.24 145.87 152.011 148.293 150.049 147.572C147.834 146.582 145.653 135.404 144.718 132.526C142.693 126.297 137.466 112.587 130.158 111.348C128.598 111.084 126.679 110.84 125.063 110.938C121.582 111.148 117.356 112.577 117.356 107.961C117.356 102.908 120.453 101.105 121.484 95.9552C123.646 85.1445 116.353 73.9807 113.659 59.6976C109.406 37.1537 108.48 21.8186 118.39 1.76417C120.705 -1.17055 124.553 -0.276058 124.196 3.20663C124.06 4.54512 122.41 8.52033 121.58 12.009C117.836 27.728 118.529 40.2708 120.303 50.8145C123.127 67.601 130.756 78.0846 129.748 93.1032C129.51 96.6497 128.014 101.025 127.071 103.546Z"/>
<path d="M216.316 216.082C217.992 215.638 219.976 212.826 222.91 212.369C226.789 211.767 232.01 212.288 236.109 212.288L236.104 212.327C235.18 220.594 234.253 228.885 233.009 237.113C232.132 242.904 231.269 250.023 229.85 255.603C228.688 260.17 227.665 258.152 225.707 260.114C223.922 261.903 225.069 263.136 227.23 263.389C229.147 263.614 243.783 263.59 244.752 263.155C246.463 262.386 246.162 260.653 244.743 259.72C241.392 257.517 240.092 259.802 240.444 253.643C240.708 249.066 241.935 242.818 242.66 238.109C243.99 229.474 246.012 220.975 247.066 212.288C251.657 212.288 261.228 211.259 265.501 213.834C266.979 214.724 269.447 218.04 270.629 213.704C271.394 210.897 272.686 204.306 268.405 204.124C253.294 205.57 231.912 205.618 216.445 204.521C214.788 204.969 214.373 205.63 213.916 207.17C213.079 210.001 211.245 217.43 216.316 216.082Z"/>
<path d="M217.148 157.635C220.519 161.121 221.248 167.51 217.872 172.044C214.073 177.145 205.088 172.515 209.94 166.436C210.775 165.39 212.145 165.26 211.787 163.983C210.74 160.252 206.982 160.45 204.812 161.731C198.533 165.434 197.016 177.191 196.704 181.808C196.314 187.555 194.01 240.382 181.605 254.926C175.9 261.612 166.318 263.971 158.303 260.085C150.538 256.323 147.767 244.998 153.275 238.264C159.488 230.669 169.436 237.463 164.066 245.167C162.919 246.813 161.063 246.891 161.312 248.812C162.043 254.482 168.296 255.465 172.088 251.461C181.004 242.048 185.022 208.075 186.288 195.801C187.555 183.526 185.957 156.948 202.901 153.707C207.193 152.886 213.569 153.932 217.148 157.635Z"/>
<path d="M137.886 156.626L162.675 156.752C163.933 157.109 163.909 159.993 163.215 160.723C162.002 161.998 158.812 161.964 157.253 163.258C156.122 164.197 155.325 166.199 154.992 167.649C153.737 173.117 153.157 179.227 152.656 185.39C152.127 191.896 151.3 198.418 150.629 204.39C150.774 209.563 156.048 207.551 156.866 210.43C157.407 212.331 156.312 213.86 154.475 214.296L131.309 214.028C129.637 213.516 128.992 211.781 129.678 210.116C130.879 207.203 133.349 208.603 135.537 208.102C138.258 207.48 138.455 204.376 138.816 202.075C140.249 192.958 143.115 174.773 142.354 166.17C141.856 160.545 136.592 162.802 135.909 160.723C135.398 159.168 136.192 156.956 137.884 156.628L137.886 156.626Z"/>
<path d="M114.165 130.522C114.941 131.072 114.944 131.374 115.03 132.805C115.19 135.453 115.096 139.202 115.114 140.216C115.142 141.793 115.62 145.41 113.82 145.954C109.125 147.375 109.519 142.298 107.805 139.587C105.685 136.23 93.0249 134.083 90.7295 136.821C88.843 139.073 88.9403 151.614 88.2048 155.092C91.3439 155.776 97.1354 156.264 99.5909 153.801C101.192 152.198 101.062 148.46 103.939 148.174C107.126 147.856 106.438 150.21 106.347 152.77C106.226 156.173 105.856 161.02 105.413 164.39C105.062 167.041 104.465 169.499 101.03 168.917C98.6109 168.507 99.7467 165.895 99.0046 163.979C97.7152 160.645 90.6906 160.513 87.6942 160.949C87.3048 161.23 87.0149 163.387 86.9132 164.063C86.4026 167.479 85.613 172.804 85.5308 176.125C85.3815 182.183 89.254 183.142 94.4246 182.837C98.2431 182.611 103.197 181.123 105.915 178.314C107.695 176.473 108.288 172.986 111.315 172.854C113.082 172.778 114.493 173.64 114.324 175.536C114.166 177.312 112.344 183.46 111.646 185.345C109.843 190.203 107.024 189.046 102.198 188.925C91.9605 188.665 81.7149 188.291 71.4127 188.453C69.5067 188.484 65.3883 189.755 65.4121 186.236C65.4403 182.036 71.6524 184.827 72.9137 179.495C73.8223 168.388 75.9316 157.334 76.903 146.249C77.1345 143.611 78.3191 137.648 75.8442 136.095C74.3817 135.177 71.004 136.089 71.2116 132.947C71.508 128.492 76.4889 129.94 80.5679 130.033C87.5709 130.193 94.3987 130.089 101.328 130.003C104.694 129.961 108.069 129.992 111.437 130.036C112.455 130.049 113.388 129.973 114.165 130.522Z"/>
<path fill-rule="evenodd" clip-rule="evenodd" d="M30.1814 155.307L35.4892 106.747C35.4892 106.747 42.9129 107.065 44.7062 113.457C45.0129 114.55 44.486 114.84 43.7276 115.256C43.2212 115.534 42.6116 115.869 42.078 116.537C36.6223 123.373 46.7252 128.578 50.996 122.843C54.7926 117.745 53.4339 111.356 49.6442 107.436C44.3061 101.915 36.234 101.011 36.234 101.011C36.234 101.011 38.506 83.4583 38.0885 81.2318C37.6709 79.0053 35.2085 79.0988 33.4475 79.3869C30.1611 79.9245 30.0564 81.6448 29.352 93.2236C29.2237 95.3315 29.0756 97.7661 28.8848 100.58C-2.93279 102.815 -13.3237 156.324 22.8272 161.202C22.7663 161.795 22.6445 162.674 22.4997 163.719C21.9039 168.019 20.9178 175.134 22.1781 176.783C23.7704 178.485 27.2559 177.448 27.7497 174.95C28.2427 172.456 28.4344 170.292 28.7365 166.883C28.885 165.206 29.0763 163.668 29.3271 161.202C33.3022 161.202 47.1723 157.357 47.8408 153.095C48.0636 151.674 46.679 149.359 45.1365 149.493C44.6639 149.533 43.325 150.44 42.0798 151.283C41.2443 151.849 40.4509 152.386 39.9897 152.614C33.5074 155.816 30.1814 155.307 30.1814 155.307ZM19.3722 111.63C21.687 108.959 24.5148 107.004 28.1515 106.64L25.8215 130.763L23.5303 154.749C23.5303 154.749 23.2468 154.926 19.926 153.052C6.96491 145.738 11.0754 121.196 19.3722 111.63Z"/>
</svg>
