<svg width="719" height="82" viewBox="0 0 719 82" fill="#282828" xmlns="http://www.w3.org/2000/svg"><!-- fill="#F7F7F5" -->
<path d="M30.9408 26.8334V32.2443C27.3335 34.2119 23.1687 35.1957 18.4464 35.1957C14.6096 35.1957 11.3548 34.4251 8.6821 32.8838C6.00942 31.3425 3.89424 29.2191 2.33655 26.5136C0.778852 23.8082 0 20.8813 0 17.7331C0 12.7321 1.77905 8.52633 5.33716 5.1158C8.91166 1.70526 13.3142 0 18.5448 0C22.1521 0 26.1611 0.942813 30.5718 2.82845V8.11642C26.5546 5.82086 22.6276 4.67309 18.7907 4.67309C14.8555 4.67309 11.5843 5.91925 8.97723 8.41156C6.38654 10.8875 5.09122 13.9947 5.09122 17.7331C5.09122 21.5044 6.37017 24.6034 8.92807 27.0301C11.486 29.4569 14.7571 30.6702 18.7415 30.6702C22.9063 30.6702 26.9727 29.3913 30.9408 26.8334Z"/>
<path d="M52.7656 0.245949H56.2335L71.6055 34.8022H66.5635L61.9888 24.6198H47.3792L43.0504 34.8022H38.0084L52.7656 0.245949ZM59.972 20.2419L54.438 7.79668L49.2976 20.2419H59.972Z"/>
<path d="M106.269 0.442711H110.844V34.8022H105.9V8.06723L95.3241 21.3486H94.4141L83.7398 8.06723V34.8022H78.8207V0.442711H83.4446L94.8814 14.5604L106.269 0.442711Z"/>
<path d="M121.797 0.442711H141.277V4.82066H126.716V15.2982H140.785V19.7008H126.716V30.3751H141.744V34.753H121.797V0.442711Z"/>
<path d="M150.656 34.8022V0.442711H159.265C162.741 0.442711 165.496 1.30354 167.529 3.02521C169.578 4.74687 170.603 7.07522 170.603 10.0102C170.603 12.0107 170.103 13.7405 169.103 15.1998C168.103 16.6592 166.668 17.7495 164.799 18.471C165.897 19.1925 166.971 20.1763 168.021 21.4224C169.07 22.6686 170.546 24.8412 172.448 27.9402C173.645 29.8914 174.604 31.3589 175.325 32.3427L177.145 34.8022H171.292L169.791 32.5395C169.742 32.4575 169.644 32.3181 169.496 32.1213L168.537 30.7686L167.012 28.2599L165.364 25.579C164.348 24.1689 163.413 23.0457 162.56 22.2095C161.724 21.3732 160.962 20.7747 160.273 20.414C159.601 20.0369 158.461 19.8483 156.854 19.8483H155.575V34.8022H150.656ZM157.051 4.6239H155.575V15.4704H157.445C159.937 15.4704 161.642 15.2572 162.56 14.8309C163.495 14.4046 164.217 13.7651 164.725 12.9125C165.25 12.0435 165.512 11.0596 165.512 9.96106C165.512 8.87887 165.225 7.90326 164.651 7.03423C164.077 6.1488 163.266 5.52572 162.216 5.16499C161.183 4.80426 159.462 4.6239 157.051 4.6239Z"/>
<path d="M195.453 0.245949H198.921L214.293 34.8022H209.251L204.676 24.6198H190.067L185.738 34.8022H180.696L195.453 0.245949ZM202.66 20.2419L197.126 7.79668L191.985 20.2419H202.66Z"/>
<path d="M213.613 0.393524H242.316V4.77147H230.338V34.8022H225.394V4.77147H213.613V0.393524Z"/>
<path d="M256.418 0.245949H259.886L275.258 34.8022H270.216L265.641 24.6198H251.031L246.703 34.8022H241.661L256.418 0.245949ZM263.624 20.2419L258.09 7.79668L252.95 20.2419H263.624Z"/>
<path d="M300.166 34.753V0.442711H311.75C316.423 0.442711 320.121 1.14777 322.842 2.5579C325.564 3.95163 327.729 6.00943 329.336 8.7313C330.943 11.4532 331.746 14.421 331.746 17.6348C331.746 19.9303 331.303 22.1275 330.418 24.2263C329.532 26.3251 328.27 28.1697 326.63 29.7602C324.958 31.3999 323.015 32.6378 320.801 33.4741C319.506 33.9824 318.317 34.3267 317.235 34.5071C316.153 34.671 314.087 34.753 311.037 34.753H300.166ZM311.234 4.82066H305.085V30.3751H311.381C313.841 30.3751 315.751 30.2111 317.112 29.8832C318.473 29.5388 319.604 29.1125 320.506 28.6042C321.424 28.0795 322.26 27.44 323.015 26.6858C325.441 24.2263 326.655 21.1191 326.655 17.3642C326.655 13.6749 325.409 10.6661 322.916 8.33778C321.998 7.46875 320.94 6.75548 319.743 6.19799C318.563 5.6405 317.44 5.27157 316.374 5.09121C315.308 4.91084 313.595 4.82066 311.234 4.82066Z"/>
<path d="M341.421 0.442711H360.9V4.82066H346.34V15.2982H360.408V19.7008H346.34V30.3751H361.367V34.753H341.421V0.442711Z"/>
<path d="M387.677 0.442711H407.157V4.82066H392.596V15.2982H406.665V19.7008H392.596V30.3751H407.624V34.753H387.677V0.442711Z"/>
<path d="M424.899 20.3894L421.16 18.1267C418.816 16.7001 417.143 15.2982 416.143 13.9209C415.159 12.5272 414.667 10.9285 414.667 9.12482C414.667 6.41935 415.602 4.22217 417.471 2.5333C419.357 0.844432 421.8 0 424.8 0C427.67 0 430.302 0.803445 432.695 2.41033V7.99344C430.22 5.6159 427.555 4.42714 424.702 4.42714C423.095 4.42714 421.775 4.80426 420.742 5.55852C419.709 6.29637 419.193 7.24739 419.193 8.41156C419.193 9.44456 419.57 10.412 420.324 11.3138C421.078 12.2156 422.3 13.1584 423.989 14.1422L427.752 16.3558C431.949 18.8481 434.048 22.0291 434.048 25.8988C434.048 28.6534 433.122 30.8916 431.269 32.6132C429.432 34.3349 427.039 35.1957 424.087 35.1957C420.693 35.1957 417.602 34.1545 414.815 32.0721V25.825C417.471 29.1863 420.545 30.867 424.038 30.867C425.579 30.867 426.858 30.4407 427.875 29.588C428.908 28.719 429.424 27.6368 429.424 26.3415C429.424 24.2427 427.916 22.2587 424.899 20.3894Z"/>
<path d="M440.058 0.393524H468.761V4.77147H456.783V34.8022H451.839V4.77147H440.058V0.393524Z"/>
<path d="M500.866 0.442711H505.81V19.9467C505.81 22.5866 505.613 24.5788 505.22 25.9233C504.843 27.2679 504.367 28.3911 503.793 29.2929C503.236 30.1783 502.547 30.9736 501.727 31.6786C499.005 34.0234 495.447 35.1957 491.053 35.1957C486.577 35.1957 482.986 34.0316 480.28 31.7032C479.46 30.9818 478.764 30.1783 478.19 29.2929C477.632 28.3911 477.165 27.2925 476.788 25.9971C476.427 24.7018 476.247 22.6686 476.247 19.8975V0.442711H481.19V19.9467C481.19 23.1769 481.559 25.4232 482.297 26.6858C483.035 27.9483 484.158 28.9649 485.667 29.7356C487.175 30.4898 488.954 30.867 491.004 30.867C493.922 30.867 496.3 30.1045 498.136 28.5796C499.104 27.7598 499.801 26.7924 500.227 25.6774C500.653 24.5624 500.866 22.6522 500.866 19.9467V0.442711Z"/>
<path d="M516.198 34.753V0.442711H527.782C532.456 0.442711 536.153 1.14777 538.875 2.5579C541.597 3.95163 543.761 6.00943 545.368 8.7313C546.975 11.4532 547.778 14.421 547.778 17.6348C547.778 19.9303 547.336 22.1275 546.45 24.2263C545.565 26.3251 544.302 28.1697 542.663 29.7602C540.99 31.3999 539.047 32.6378 536.833 33.4741C535.538 33.9824 534.349 34.3267 533.267 34.5071C532.185 34.671 530.119 34.753 527.069 34.753H516.198ZM527.266 4.82066H521.117V30.3751H527.414C529.873 30.3751 531.783 30.2111 533.144 29.8832C534.505 29.5388 535.637 29.1125 536.538 28.6042C537.457 28.0795 538.293 27.44 539.047 26.6858C541.474 24.2263 542.687 21.1191 542.687 17.3642C542.687 13.6749 541.441 10.6661 538.949 8.33778C538.031 7.46875 536.973 6.75548 535.776 6.19799C534.595 5.6405 533.472 5.27157 532.406 5.09121C531.341 4.91084 529.627 4.82066 527.266 4.82066Z"/>
<path d="M565.619 0.245949H569.087L584.459 34.8022H579.417L574.842 24.6198H560.232L555.904 34.8022H550.862L565.619 0.245949ZM572.825 20.2419L567.291 7.79668L562.151 20.2419H572.825Z"/>
<path d="M619.073 0.442711H623.746V34.8022H619.516L596.544 8.36237V34.8022H591.92V0.442711H595.904L619.073 27.1039V0.442711Z"/>
<path d="M631.724 0.393524H660.426V4.77147H648.448V34.8022H643.505V4.77147H631.724V0.393524Z"/>
<path d="M668.625 0.442711H688.105V4.82066H673.544V15.2982H687.613V19.7008H673.544V30.3751H688.572V34.753H668.625V0.442711Z"/>
<path d="M705.847 20.3894L702.108 18.1267C699.764 16.7001 698.091 15.2982 697.091 13.9209C696.107 12.5272 695.615 10.9285 695.615 9.12482C695.615 6.41935 696.55 4.22217 698.419 2.5333C700.305 0.844432 702.748 0 705.748 0C708.618 0 711.25 0.803445 713.643 2.41033V7.99344C711.167 5.6159 708.503 4.42714 705.65 4.42714C704.043 4.42714 702.723 4.80426 701.69 5.55852C700.657 6.29637 700.141 7.24739 700.141 8.41156C700.141 9.44456 700.518 10.412 701.272 11.3138C702.026 12.2156 703.248 13.1584 704.937 14.1422L708.7 16.3558C712.897 18.8481 714.996 22.0291 714.996 25.8988C714.996 28.6534 714.07 30.8916 712.217 32.6132C710.38 34.3349 707.987 35.1957 705.035 35.1957C701.641 35.1957 698.55 34.1545 695.763 32.0721V25.825C698.419 29.1863 701.493 30.867 704.986 30.867C706.527 30.867 707.806 30.4407 708.823 29.588C709.856 28.719 710.372 27.6368 710.372 26.3415C710.372 24.2427 708.864 22.2587 705.847 20.3894Z"/>
<path d="M1.2285 81.2595V54.0752H10.4069C14.1094 54.0752 17.0389 54.6338 19.1955 55.7511C21.352 56.8553 23.0669 58.4858 24.34 60.6423C25.6132 62.7989 26.2498 65.1503 26.2498 67.6966C26.2498 69.5154 25.899 71.2562 25.1974 72.9191C24.4959 74.582 23.4956 76.0435 22.1965 77.3037C20.8714 78.6028 19.3319 79.5837 17.5781 80.2462C16.5518 80.6489 15.6099 80.9217 14.7524 81.0647C13.895 81.1946 12.2581 81.2595 9.84174 81.2595H1.2285ZM9.99762 57.5439H5.12589V77.7908H10.1146C12.0633 77.7908 13.5768 77.6609 14.655 77.4011C15.7333 77.1283 16.6297 76.7905 17.3442 76.3878C18.0717 75.9721 18.7343 75.4654 19.3319 74.8678C21.2546 72.9191 22.216 70.4573 22.216 67.4822C22.216 64.5592 21.2286 62.1753 19.2539 60.3305C18.5264 59.642 17.6885 59.0769 16.7401 58.6352C15.8047 58.1935 14.9148 57.9011 14.0704 57.7582C13.226 57.6153 11.8684 57.5439 9.99762 57.5439Z"/>
<path d="M47.2832 53.6855C51.4924 53.6855 54.9935 55.0171 57.7867 57.6803C60.5928 60.3435 61.9959 63.6823 61.9959 67.6966C61.9959 71.7109 60.5798 75.0367 57.7477 77.6739C54.9286 80.2982 51.369 81.6103 47.0688 81.6103C42.9636 81.6103 39.5404 80.2982 36.7992 77.6739C34.071 75.0367 32.707 71.7369 32.707 67.7746C32.707 63.7083 34.084 60.3435 36.8382 57.6803C39.5924 55.0171 43.074 53.6855 47.2832 53.6855ZM47.4391 57.388C44.3212 57.388 41.7554 58.3623 39.7418 60.311C37.7411 62.2597 36.7408 64.7476 36.7408 67.7746C36.7408 70.7106 37.7476 73.153 39.7612 75.1017C41.7749 77.0504 44.2952 78.0247 47.3222 78.0247C50.3621 78.0247 52.8954 77.0309 54.9221 75.0432C56.9617 73.0555 57.9816 70.5807 57.9816 67.6187C57.9816 64.7346 56.9617 62.3117 54.9221 60.35C52.8954 58.3753 50.4011 57.388 47.4391 57.388Z"/>
<path d="M83.504 54.0752H87.4014V81.2985H83.504V54.0752Z"/>
<path d="M117.867 54.0752H121.569V81.2985H118.217L100.017 60.35V81.2985H96.353V54.0752H99.5099L117.867 75.1991V54.0752Z"/>
<path d="M136.951 69.8791L133.989 68.0863C132.132 66.9561 130.806 65.8453 130.014 64.7541C129.234 63.6498 128.845 62.3831 128.845 60.9541C128.845 58.8105 129.585 57.0697 131.066 55.7316C132.56 54.3935 134.496 53.7244 136.873 53.7244C139.147 53.7244 141.232 54.361 143.129 55.6342V60.0577C141.167 58.174 139.056 57.2321 136.795 57.2321C135.522 57.2321 134.476 57.5309 133.658 58.1285C132.84 58.7131 132.43 59.4666 132.43 60.389C132.43 61.2074 132.729 61.9739 133.327 62.6884C133.924 63.403 134.892 64.15 136.23 64.9294L139.212 66.6833C142.538 68.658 144.2 71.1783 144.2 74.2442C144.2 76.4268 143.466 78.2001 141.998 79.5642C140.543 80.9282 138.647 81.6103 136.308 81.6103C133.619 81.6103 131.17 80.7853 128.962 79.1355V74.1858C131.066 76.849 133.502 78.1806 136.269 78.1806C137.49 78.1806 138.504 77.8428 139.309 77.1673C140.128 76.4787 140.537 75.6213 140.537 74.595C140.537 72.9321 139.342 71.3601 136.951 69.8791Z"/>
<path d="M148.962 54.0362H171.704V57.5049H162.213V81.2985H158.297V57.5049H148.962V54.0362Z"/>
<path d="M178.239 54.0752H182.136V81.2985H178.239V54.0752Z"/>
<path d="M188.652 54.0362H211.393V57.5049H201.903V81.2985H197.986V57.5049H188.652V54.0362Z"/>
<path d="M236.831 54.0752H240.747V69.5284C240.747 71.62 240.592 73.1984 240.28 74.2637C239.981 75.329 239.604 76.2189 239.15 76.9334C238.708 77.635 238.162 78.265 237.513 78.8237C235.356 80.6814 232.537 81.6103 229.055 81.6103C225.509 81.6103 222.664 80.6879 220.52 78.8431C219.87 78.2715 219.318 77.635 218.864 76.9334C218.422 76.2189 218.052 75.3485 217.753 74.3222C217.467 73.2959 217.324 71.6849 217.324 69.4894V54.0752H221.241V69.5284C221.241 72.0877 221.533 73.8675 222.118 74.8678C222.703 75.8681 223.592 76.6736 224.788 77.2842C225.983 77.8818 227.392 78.1806 229.016 78.1806C231.329 78.1806 233.213 77.5765 234.668 76.3683C235.434 75.7187 235.986 74.9522 236.324 74.0688C236.662 73.1854 236.831 71.6719 236.831 69.5284V54.0752Z"/>
<path d="M246.62 54.0362H269.361V57.5049H259.871V81.2985H255.954V57.5049H246.62V54.0362Z"/>
<path d="M286.614 53.6855C290.824 53.6855 294.325 55.0171 297.118 57.6803C299.924 60.3435 301.327 63.6823 301.327 67.6966C301.327 71.7109 299.911 75.0367 297.079 77.6739C294.26 80.2982 290.7 81.6103 286.4 81.6103C282.295 81.6103 278.871 80.2982 276.13 77.6739C273.402 75.0367 272.038 71.7369 272.038 67.7746C272.038 63.7083 273.415 60.3435 276.169 57.6803C278.924 55.0171 282.405 53.6855 286.614 53.6855ZM286.77 57.388C283.652 57.388 281.087 58.3623 279.073 60.311C277.072 62.2597 276.072 64.7476 276.072 67.7746C276.072 70.7106 277.079 73.153 279.092 75.1017C281.106 77.0504 283.626 78.0247 286.653 78.0247C289.693 78.0247 292.227 77.0309 294.253 75.0432C296.293 73.0555 297.313 70.5807 297.313 67.6187C297.313 64.7346 296.293 62.3117 294.253 60.35C292.227 58.3753 289.732 57.388 286.77 57.388Z"/>
<path d="M329.539 69.8791L326.577 68.0863C324.719 66.9561 323.394 65.8453 322.601 64.7541C321.822 63.6498 321.432 62.3831 321.432 60.9541C321.432 58.8105 322.173 57.0697 323.654 55.7316C325.148 54.3935 327.083 53.7244 329.461 53.7244C331.734 53.7244 333.819 54.361 335.716 55.6342V60.0577C333.754 58.174 331.643 57.2321 329.383 57.2321C328.11 57.2321 327.064 57.5309 326.245 58.1285C325.427 58.7131 325.018 59.4666 325.018 60.389C325.018 61.2074 325.316 61.9739 325.914 62.6884C326.512 63.403 327.48 64.15 328.818 64.9294L331.799 66.6833C335.125 68.658 336.788 71.1783 336.788 74.2442C336.788 76.4268 336.054 78.2001 334.586 79.5642C333.131 80.9282 331.234 81.6103 328.896 81.6103C326.206 81.6103 323.758 80.7853 321.549 79.1355V74.1858C323.654 76.849 326.089 78.1806 328.857 78.1806C330.078 78.1806 331.091 77.8428 331.897 77.1673C332.715 76.4787 333.124 75.6213 333.124 74.595C333.124 72.9321 331.929 71.3601 329.539 69.8791Z"/>
<path d="M362.81 54.0752H366.727V69.5284C366.727 71.62 366.571 73.1984 366.259 74.2637C365.96 75.329 365.584 76.2189 365.129 76.9334C364.687 77.635 364.142 78.265 363.492 78.8237C361.335 80.6814 358.516 81.6103 355.035 81.6103C351.488 81.6103 348.643 80.6879 346.499 78.8431C345.85 78.2715 345.298 77.635 344.843 76.9334C344.401 76.2189 344.031 75.3485 343.732 74.3222C343.446 73.2959 343.303 71.6849 343.303 69.4894V54.0752H347.22V69.5284C347.22 72.0877 347.513 73.8675 348.097 74.8678C348.682 75.8681 349.572 76.6736 350.767 77.2842C351.962 77.8818 353.372 78.1806 354.996 78.1806C357.308 78.1806 359.192 77.5765 360.647 76.3683C361.413 75.7187 361.966 74.9522 362.303 74.0688C362.641 73.1854 362.81 71.6719 362.81 69.5284V54.0752Z"/>
<path d="M374.704 81.2985V54.0362H383.337C385.935 54.0362 388.007 54.7378 389.553 56.1408C391.099 57.5439 391.872 59.4276 391.872 61.792C391.872 63.377 391.476 64.7801 390.683 66.0012C389.891 67.2224 388.806 68.1123 387.429 68.6709C386.052 69.2166 384.077 69.4894 381.505 69.4894H378.621V81.2985H374.704ZM382.655 57.5049H378.621V66.0207H382.889C384.474 66.0207 385.695 65.6505 386.552 64.91C387.41 64.1565 387.838 63.0847 387.838 61.6946C387.838 58.9015 386.11 57.5049 382.655 57.5049Z"/>
<path d="M398.056 54.0752H413.49V57.5439H401.954V65.8453H413.1V69.3335H401.954V77.7908H413.86V81.2595H398.056V54.0752Z"/>
<path d="M420.922 81.2985V54.0752H427.742C430.496 54.0752 432.679 54.7572 434.29 56.1213C435.914 57.4854 436.726 59.3302 436.726 61.6556C436.726 63.2406 436.329 64.6112 435.537 65.7674C434.744 66.9236 433.608 67.7875 432.127 68.3592C432.997 68.9308 433.848 69.7103 434.679 70.6976C435.511 71.6849 436.68 73.4063 438.187 75.8616C439.135 77.4076 439.895 78.5703 440.467 79.3498L441.909 81.2985H437.271L436.082 79.5057C436.044 79.4408 435.966 79.3303 435.849 79.1744L435.089 78.1026L433.88 76.115L432.575 73.9909C431.769 72.8736 431.029 71.9837 430.353 71.3212C429.691 70.6586 429.087 70.1844 428.541 69.8986C428.008 69.5998 427.105 69.4504 425.832 69.4504H424.819V81.2985H420.922ZM425.988 57.388H424.819V65.9818H426.3C428.275 65.9818 429.626 65.8129 430.353 65.4751C431.094 65.1373 431.665 64.6306 432.068 63.9551C432.484 63.2666 432.692 62.4871 432.692 61.6167C432.692 60.7592 432.464 59.9863 432.01 59.2977C431.555 58.5962 430.912 58.1025 430.08 57.8167C429.262 57.5309 427.898 57.388 425.988 57.388Z"/>
<path d="M447.762 54.0752H451.66V81.2985H447.762V54.0752Z"/>
<path d="M473.862 53.6855C478.071 53.6855 481.573 55.0171 484.366 57.6803C487.172 60.3435 488.575 63.6823 488.575 67.6966C488.575 71.7109 487.159 75.0367 484.327 77.6739C481.508 80.2982 477.948 81.6103 473.648 81.6103C469.543 81.6103 466.119 80.2982 463.378 77.6739C460.65 75.0367 459.286 71.7369 459.286 67.7746C459.286 63.7083 460.663 60.3435 463.417 57.6803C466.171 55.0171 469.653 53.6855 473.862 53.6855ZM474.018 57.388C470.9 57.388 468.335 58.3623 466.321 60.311C464.32 62.2597 463.32 64.7476 463.32 67.7746C463.32 70.7106 464.327 73.153 466.34 75.1017C468.354 77.0504 470.874 78.0247 473.901 78.0247C476.941 78.0247 479.474 77.0309 481.501 75.0432C483.541 73.0555 484.561 70.5807 484.561 67.6187C484.561 64.7346 483.541 62.3117 481.501 60.35C479.474 58.3753 476.98 57.388 474.018 57.388Z"/>
<path d="M496.26 81.2985V54.0752H503.08C505.834 54.0752 508.017 54.7572 509.628 56.1213C511.252 57.4854 512.064 59.3302 512.064 61.6556C512.064 63.2406 511.668 64.6112 510.875 65.7674C510.083 66.9236 508.946 67.7875 507.465 68.3592C508.335 68.9308 509.186 69.7103 510.018 70.6976C510.849 71.6849 512.018 73.4063 513.525 75.8616C514.474 77.4076 515.234 78.5703 515.805 79.3498L517.247 81.2985H512.609L511.421 79.5057C511.382 79.4408 511.304 79.3303 511.187 79.1744L510.427 78.1026L509.219 76.115L507.913 73.9909C507.108 72.8736 506.367 71.9837 505.691 71.3212C505.029 70.6586 504.425 70.1844 503.879 69.8986C503.347 69.5998 502.444 69.4504 501.171 69.4504H500.157V81.2985H496.26ZM501.326 57.388H500.157V65.9818H501.638C503.613 65.9818 504.964 65.8129 505.691 65.4751C506.432 65.1373 507.004 64.6306 507.406 63.9551C507.822 63.2666 508.03 62.4871 508.03 61.6167C508.03 60.7592 507.803 59.9863 507.348 59.2977C506.893 58.5962 506.25 58.1025 505.419 57.8167C504.6 57.5309 503.236 57.388 501.326 57.388Z"/>
<path d="M529.655 54.0362H552.396V57.5049H542.906V81.2985H538.989V57.5049H529.655V54.0362Z"/>
<path d="M558.893 54.0752H574.326V57.5439H562.79V65.8453H573.936V69.3335H562.79V77.7908H574.697V81.2595H558.893V54.0752ZM570.234 46.222L565.83 52.0681H563.647L566.278 46.222H570.234Z"/>
<path d="M605.103 74.9847V79.2719C602.245 80.8308 598.945 81.6103 595.204 81.6103C592.164 81.6103 589.585 80.9997 587.467 79.7785C585.35 78.5573 583.674 76.875 582.44 74.7314C581.206 72.5878 580.589 70.2689 580.589 67.7746C580.589 63.8122 581.998 60.4799 584.817 57.7777C587.649 55.0755 591.138 53.7244 595.282 53.7244C598.14 53.7244 601.316 54.4714 604.811 55.9654V60.1551C601.628 58.3363 598.517 57.427 595.477 57.427C592.359 57.427 589.767 58.4143 587.701 60.389C585.649 62.3507 584.622 64.8125 584.622 67.7746C584.622 70.7626 585.636 73.2179 587.662 75.1406C589.689 77.0633 592.281 78.0247 595.438 78.0247C598.737 78.0247 601.959 77.0114 605.103 74.9847Z"/>
<path d="M634.321 54.0752H638.024V81.2985H634.672L616.471 60.35V81.2985H612.807V54.0752H615.964L634.321 75.1991V54.0752Z"/>
<path d="M646.702 54.0752H650.6V81.2985H646.702V54.0752Z"/>
<path d="M682.897 74.9847V79.2719C680.039 80.8308 676.739 81.6103 672.997 81.6103C669.957 81.6103 667.378 80.9997 665.261 79.7785C663.143 78.5573 661.467 76.875 660.233 74.7314C658.999 72.5878 658.382 70.2689 658.382 67.7746C658.382 63.8122 659.792 60.4799 662.611 57.7777C665.443 55.0755 668.931 53.7244 673.075 53.7244C675.933 53.7244 679.11 54.4714 682.604 55.9654V60.1551C679.421 58.3363 676.31 57.427 673.27 57.427C670.152 57.427 667.56 58.4143 665.495 60.389C663.442 62.3507 662.416 64.8125 662.416 67.7746C662.416 70.7626 663.429 73.2179 665.456 75.1406C667.482 77.0633 670.074 78.0247 673.231 78.0247C676.531 78.0247 679.753 77.0114 682.897 74.9847Z"/>
<path d="M703.852 53.6855C708.061 53.6855 711.562 55.0171 714.356 57.6803C717.162 60.3435 718.565 63.6823 718.565 67.6966C718.565 71.7109 717.149 75.0367 714.317 77.6739C711.498 80.2982 707.938 81.6103 703.638 81.6103C699.532 81.6103 696.109 80.2982 693.368 77.6739C690.64 75.0367 689.276 71.7369 689.276 67.7746C689.276 63.7083 690.653 60.3435 693.407 57.6803C696.161 55.0171 699.643 53.6855 703.852 53.6855ZM704.008 57.388C700.89 57.388 698.324 58.3623 696.311 60.311C694.31 62.2597 693.31 64.7476 693.31 67.7746C693.31 70.7106 694.317 73.153 696.33 75.1017C698.344 77.0504 700.864 78.0247 703.891 78.0247C706.931 78.0247 709.464 77.0309 711.491 75.0432C713.531 73.0555 714.55 70.5807 714.55 67.6187C714.55 64.7346 713.531 62.3117 711.491 60.35C709.464 58.3753 706.97 57.388 704.008 57.388Z"/>
</svg>
